<svg xmlns="http://www.w3.org/2000/svg" xmlns:xlink="http://www.w3.org/1999/xlink" width="500" zoomAndPan="magnify" viewBox="0 0 375 374.999991" height="500" preserveAspectRatio="xMidYMid meet" version="1.0"><defs><clipPath id="id1"><path d="M 128.667969 132 L 219 132 L 219 208 L 128.667969 208 Z M 128.667969 132 " clip-rule="nonzero"/></clipPath><clipPath id="id2"><path d="M 134 98.53125 L 227 98.53125 L 227 183 L 134 183 Z M 134 98.53125 " clip-rule="nonzero"/></clipPath></defs><rect x="-37.5" width="450" fill="#ffffff" y="-37.499999" height="449.999989" fill-opacity="1"/><rect x="-37.5" width="450" fill="#dcdde6" y="-37.499999" height="449.999989" fill-opacity="1"/><rect x="-37.5" width="450" fill="#ffffff" y="-37.499999" height="449.999989" fill-opacity="1"/><rect x="-37.5" width="450" fill="#dcdde6" y="-37.499999" height="449.999989" fill-opacity="1"/><path fill="#62e1e9" d="M 231.570312 127.304688 C 234.019531 132.246094 234.117188 132.441406 235.183594 135.464844 C 236.808594 140.828125 236.875 141.039062 237.421875 144.207031 C 237.667969 146.144531 237.988281 148.734375 238.117188 150.679688 C 238.019531 159.132812 235.558594 169.425781 218.050781 181.667969 C 210.496094 186.949219 195.503906 194.804688 166.992188 202.207031 C 163.054688 203.226562 163.027344 203.242188 162.347656 203.671875 C 162.378906 203.699219 162.417969 203.734375 162.449219 203.761719 C 158.863281 202.160156 158.570312 202.027344 156.382812 200.804688 C 153.605469 199.230469 151.027344 197.34375 148.683594 195.167969 C 149.523438 194.4375 150.851562 193.945312 157.042969 192.0625 C 234.011719 168.648438 239.960938 143.75 231.394531 126.988281 L 231.570312 127.304688 " fill-opacity="1" fill-rule="nonzero"/><path fill="#62e1e9" d="M 165.039062 101.898438 C 167.851562 100.96875 170.757812 100.007812 176.097656 99.222656 L 177.480469 99.054688 C 177.320312 99.085938 177.089844 99.140625 176.980469 99.261719 C 177.171875 99.449219 177.675781 99.949219 183.5 100.898438 C 178.722656 100.777344 177.585938 100.75 172.246094 101.527344 C 165.425781 101.753906 165.425781 101.753906 165.039062 101.898438 " fill-opacity="1" fill-rule="nonzero"/><path fill="#0652e9" d="M 215.082031 108.804688 C 213.699219 107.894531 211.847656 106.6875 210.421875 105.847656 C 206.90625 103.988281 206.453125 103.75 203.382812 102.5 C 200.363281 101.394531 200.246094 101.351562 198.359375 100.808594 C 195.863281 100.148438 195.863281 100.148438 194.523438 99.871094 C 192.453125 99.472656 192.453125 99.472656 191.394531 99.320312 C 190.609375 99.214844 189.5625 99.085938 188.777344 99 C 198.152344 100.144531 207.003906 103.445312 215.082031 108.804688 " fill-opacity="1" fill-rule="nonzero"/><path fill="#0652e9" d="M 220.265625 193.6875 C 223.957031 190.089844 224.175781 189.875 226.199219 187.386719 C 229.375 183.117188 229.5625 182.859375 231.199219 179.996094 C 233.730469 175.070312 233.777344 174.976562 234.800781 172.226562 C 236.214844 167.652344 240.511719 153.734375 219.695312 137.457031 C 205.8125 126.601562 186.664062 117.875 162.777344 111.527344 C 156.214844 109.78125 154.402344 109.230469 153.199219 108.414062 C 153.179688 108.253906 153.148438 108.035156 153.128906 107.871094 C 153.175781 107.828125 153.242188 107.773438 153.292969 107.734375 C 149.5 110.414062 149.015625 110.757812 146.402344 113.089844 C 142.652344 116.769531 142.578125 116.839844 140.828125 118.988281 C 140.796875 119.246094 140.757812 119.59375 140.730469 119.851562 C 141.863281 121.171875 143.914062 122.085938 155.316406 125.566406 C 204.921875 140.707031 246.410156 168.484375 220.265625 193.6875 " fill-opacity="1" fill-rule="nonzero"/><g clip-path="url(#id1)"><path fill="#0652e9" d="M 183.304688 205.753906 C 189.835938 211.027344 220.414062 201.488281 218.304688 185.066406 C 217.449219 178.429688 209.894531 161.105469 158.273438 143.675781 C 136.875 136.449219 132.332031 134.683594 132.800781 132.390625 L 131.691406 135.289062 C 130.042969 140.644531 129.976562 140.855469 129.417969 144.027344 C 129.160156 145.992188 128.828125 148.613281 128.691406 150.585938 C 129.222656 153.308594 133.410156 154.992188 149.769531 160.238281 C 235.96875 187.882812 199.625 207.800781 183.304688 205.753906 " fill-opacity="1" fill-rule="nonzero"/></g><g clip-path="url(#id2)"><path fill="#62e1e9" d="M 188.777344 99 C 189.5625 99.085938 190.609375 99.214844 191.394531 99.320312 C 193.375 99.636719 193.453125 99.648438 194.523438 99.871094 C 196.871094 100.398438 197.011719 100.429688 198.359375 100.808594 C 201.207031 101.679688 201.503906 101.773438 203.382812 102.5 C 206.738281 103.917969 207.433594 104.214844 210.421875 105.847656 C 211.835938 106.710938 213.714844 107.871094 215.082031 108.804688 C 235.46875 124.117188 223.964844 139.226562 218.074219 145.015625 C 214.40625 148.621094 208.261719 154.652344 187.96875 164.464844 C 172.351562 172.019531 155.289062 175.816406 139.53125 183 C 136.824219 177.683594 135.058594 171.640625 134.457031 165.078125 C 149.972656 159.007812 166.007812 154.289062 181.1875 147.339844 C 193.578125 141.671875 202.277344 135.722656 205.964844 132.355469 C 220.972656 118.640625 213.414062 107.976562 202.378906 103.011719 C 195.65625 99.988281 187.367188 99.058594 183.5 100.898438 C 183.222656 100.601562 183.027344 100.050781 182.984375 99.648438 C 183.335938 99.34375 184.261719 98.535156 188.777344 99 " fill-opacity="1" fill-rule="nonzero"/></g><path fill="#0652e9" d="M 238.117188 150.679688 C 237.945312 148.734375 237.707031 146.140625 237.421875 144.207031 C 236.238281 138.589844 236.21875 138.480469 235.183594 135.464844 C 233.164062 130.316406 233.085938 130.113281 231.570312 127.304688 L 231.394531 126.988281 C 217.527344 104.667969 180.5 98.933594 177.480469 99.054688 L 176.097656 99.222656 C 172.160156 99.824219 169.628906 100.351562 165.039062 101.898438 C 165.953125 102.339844 165.953125 102.339844 169.269531 103.039062 C 175.910156 104.441406 199.0625 110.007812 218.230469 122.804688 C 236.523438 135.015625 237.683594 146.398438 238.117188 150.679688 " fill-opacity="1" fill-rule="nonzero"/></svg>